# xmcd
# 
# Track frame offsets:
#   150
#   12075
#   29550
#   46200
#   57750
#   76575
#   89925
#   106200
#   120600
#   135375
#   151500
#   167700
#   179550
#   196200
#   217050
# 
# Disc length: 3140 seconds
# 
# Revision: 2
# Processed by: cddbd v1.5.2PL0 Copyright (c) Steve Scherf et al.
# Submitted via: Synapstar 1.0 
# 
DISCID=bf0c420f
DTITLE=Various Artist - DKM3036
DYEAR=1900
DGENRE=Country
TTITLE0=Vince Gill - Take Your Memory With You
TTITLE1=Vince Gill - No Future In The Past
TTITLE2=Clay Walker - Dreaming With My Eyes Open
TTITLE3=Collin Raye - Every Second
TTITLE4=Collin Raye - One Boy One Girl
TTITLE5=Toby Keith - Little Less Talk A Lot More Action
TTITLE6=Doug Stone - These Lips Don't Know How To Say Goodbye
TTITLE7=George Strait - Love Without End Amen
TTITLE8=Neal McCoy - No Doubt About It
TTITLE9=Paul Overstreet - Ball and Chain
TTITLE10=Paul Overstreet - Daddy's Come Around
TTITLE11=Ricky Van Shelton - I've Cried My Last Tear For You
TTITLE12=Ricky Van Shelton - I Am A Simple Man
TTITLE13=Joe Diffie - John Deere Green
TTITLE14=Dwight Yokam - You're The One
EXTD=MediaType: Karaoke CD+G Producer: DK
EXTT0=
EXTT1=
EXTT2=
EXTT3=
EXTT4=
EXTT5=
EXTT6=
EXTT7=
EXTT8=
EXTT9=
EXTT10=
EXTT11=
EXTT12=
EXTT13=
EXTT14=
PLAYORDER=
